<svg xmlns="http://www.w3.org/2000/svg" xmlns:xlink="http://www.w3.org/1999/xlink" width="800" height="450.122" viewBox="0 0 800 450.122" role="img" artist="Katerina Limpitsouni" source="https://undraw.co/"><defs><linearGradient id="a-403" y1="0.5" x2="1" y2="0.5" gradientUnits="objectBoundingBox"><stop offset="0" stop-color="#439ddf"/><stop offset="0" stop-color="#4f87ed"/><stop offset="0" stop-color="#9476c5"/><stop offset="0" stop-color="#bc688e"/><stop offset="1" stop-color="#d6645d"/></linearGradient><linearGradient id="b-404" y1="0.5" x2="1" y2="0.5" gradientUnits="objectBoundingBox"><stop offset="0" stop-color="#439ddf"/><stop offset="0" stop-color="#4f87ed"/><stop offset="0" stop-color="#9177c7"/><stop offset="0.781" stop-color="#9476c5"/><stop offset="0.888" stop-color="#bc688e"/><stop offset="1" stop-color="#d6645d"/></linearGradient><clipPath id="d-402"><rect width="230.509" height="55.001" fill="#fff"/></clipPath></defs><g transform="translate(-633.001 -366.421)"><path d="M186.973,73.262a68.641,68.641,0,1,1,89.2,65.5l-2.3,132.1L168.97,167.313s40.907-15.839,48.744-36.827a68.566,68.566,0,0,1-30.74-57.224Z" transform="translate(567.362 363.636)" fill="#ed9da0"/><path d="M218.819,130.3s-23.42-8.341-35.425-32.7c-11.028-22.379-12.237-60.491,19.075-69.749,0,0-18.039-15.575,15.219-25.068l-4.424,4.082s3.9-7.051,23.182-2.881c0,0,71.237-8.3,83.881,15.158,0,0,38.234,7.835,17.873,36.92,0,0-1.057,5.66-8.318,5.553l3.63-4.748L322.45,61.615s-15.386-24.506-29.907-10.956c0,0-27.772-1.169-41.056-3.6,0,0,2.666,35.675-22.828,42.623s-9.84,40.616-9.84,40.616Z" transform="translate(566.563 363.861)" fill="#090814"/><path d="M471.668,397.548,346.21,472.388l-10.432-48.624,118.871-56.475c2.251-8.548,8.477-16.718,17.711-21.91,16.157-9.086,35.35-5.612,42.87,7.758s.518,31.576-15.639,40.662c-9.234,5.193-19.451,6.267-27.922,3.752Z" transform="translate(549.231 327.151)" fill="#ed9da0"/><path d="M495.923,389.271H470.369a9.453,9.453,0,0,1-9.183-7.4h0a9.432,9.432,0,0,1,2.819-8.914l77.921-71.717a6.221,6.221,0,0,1,4.437-1.643l24.737.853a6.236,6.236,0,0,1,4.264,10.57l-73.25,75.628A8.663,8.663,0,0,1,495.923,389.271Z" transform="translate(535.624 331.576)" fill="#090814"/><path d="M194.983,167.618c28.915,29.055,56.379,36.854,81.638,12.629L312.305,441.72l-14.836,21.5-90.229.257Z" transform="translate(564.535 345.921)" fill="#f2f2f2"/><path d="M174.807,164.488l-15.088,12.4-45.806,26.144a68.257,68.257,0,0,0-41.386,43.658,411.18,411.18,0,0,0-15.51,72.094c-7.529,61.817-2.061,143.328-2.061,143.328l69.64.605-3.027-40.876-11.2-101.136.3,142.262h81.152s5.553-241.285-6.548-294.942a6.493,6.493,0,0,0-10.458-3.538Z" transform="translate(579.963 346.422)" fill="#4167B2"/><path d="M286.579,181.787l54.871,26.385A66.921,66.921,0,0,1,378,254.986l22.993,111.67L408.5,434.2s-32.324,28.949-53.537,19.349l1.514,11.2H307.427Z" transform="translate(554.578 344.38)" fill="#4167B2"/><path d="M375.413,405.9l64.492-35.729,18.47,51.17S421.3,467.28,363.3,474.03L375.413,405.9Z" transform="translate(546.24 323.905)" fill="#4167B2"/><path d="M495.241,383.282a3.033,3.033,0,0,1-.409-.029l-24.464-3.425a2.983,2.983,0,0,1-1.654-5.106l73.1-70.23a3.1,3.1,0,0,1,2.151-.832l25.776.74a2.983,2.983,0,0,1,2,5.113l-74.407,72.918a3.013,3.013,0,0,1-2.093.852Z" transform="translate(534.884 331.134)" fill="#f2f2f2"/><path d="M372.158,482.21a272.333,272.333,0,0,1-29.123-70.477,277.654,277.654,0,0,1-8.734-75.385,268.233,268.233,0,0,1,4.345-42.582c.309-1.682-2.267-2.4-2.579-.711a272.6,272.6,0,0,0-4.285,38.322,276.674,276.674,0,0,0,1.144,38.573A282.74,282.74,0,0,0,339.3,407.8a277.467,277.467,0,0,0,11.573,36.815,272.364,272.364,0,0,0,16.576,34.8q1.18,2.079,2.4,4.137a1.338,1.338,0,0,0,2.305-1.349h0Z" transform="translate(549.69 332.392)" fill="#fff"/><path d="M424.385,374.264a47.959,47.959,0,0,1-32.352,23.131c-1.687.326-.973,2.9.711,2.579a50.554,50.554,0,0,0,33.95-24.359,1.338,1.338,0,0,0-2.305-1.349h0Z" transform="translate(543.223 323.529)" fill="#fff"/><path d="M133.291,484.662c-1.345-13.927-.384-28.1.88-42.009a357.144,357.144,0,0,1,7.3-47.623,133.871,133.871,0,0,1,6.159-20.6c.585-1.436-2-2.053-2.579-.629a127.129,127.129,0,0,0-5.594,18.2c-1.817,7.526-3.252,15.123-4.469,22.743a387.066,387.066,0,0,0-4.795,48.3,167.358,167.358,0,0,0,.421,21.615c.146,1.506,2.821,1.52,2.674,0Z" transform="translate(571.593 323.599)" fill="#fff"/><path d="M220.941,471.428l-99.36,11.354,9.537-38.151,88.108-7.882c5.831-6.641,15.05-11.173,25.631-11.7,18.514-.915,34.136,10.764,34.893,26.085s-13.638,28.484-32.151,29.4c-10.581.523-20.2-3.073-26.659-9.111Z" transform="translate(572.514 317.946)" fill="#ed9da0"/><path d="M125.836,432.111l73.66-3.169-6.325,54.034S139.489,507.52,84.577,487.66l41.258-55.549Z" transform="translate(576.536 317.518)" fill="#4167B2"/><g transform="translate(1179.893 533.134)"><path d="M85.061,254.4l9.129-5.122.153-.445-.153-.247h-.445l-1.526-.094L87,248.351l-4.524-.188-4.383-.235-1.1-.235-1.034-1.363.107-.68.927-.623,1.328.116,2.935.2,4.4.3,3.2.188,4.734.492h.752l.107-.3-.257-.188-.2-.188-4.558-3.089L84.5,239.294l-2.585-1.88-1.4-.952-.7-.893-.3-1.949,1.269-1.4,1.7.116.435.116,1.726,1.328,3.687,2.854,4.815,3.546.7.586.282-.2.035-.141-.316-.529-2.619-4.734-2.794-4.815-1.244-2-.329-1.2a5.822,5.822,0,0,1-.2-1.41l1.444-1.961.8-.257,1.927.257.811.7,1.2,2.738,1.939,4.311L97.79,237.4l.88,1.739.47,1.61.175.492h.3v-.282l.247-3.3.457-4.054.445-5.216.154-1.469.727-1.761,1.444-.952,1.128.539.927,1.328-.128.858-.551,3.584-1.081,5.614-.7,3.759h.41l.47-.47,1.9-2.525,3.2-3.994,1.41-1.585,1.645-1.751,1.056-.833h2l1.469,2.184-.658,2.256-2.055,2.606-1.7,2.209-2.444,3.289-1.526,2.632.141.21.363-.035,5.52-1.175,2.982-.539,3.559-.611,1.61.752.175.764-.633,1.563-3.806.94-4.464.893-6.648,1.573-.081.06.094.116,2.995.282,1.281.069h3.136l5.84.435,1.526,1.009.915,1.234-.154.94-2.35,1.2-3.17-.752-7.4-1.761-2.538-.633h-.351v.21l2.115,2.068,3.875,3.5,4.853,4.511.248,1.115-.623.88-.658-.094-4.264-3.208-1.645-1.444-3.725-3.136h-.247v.329l.858,1.256,4.533,6.814.235,2.09-.329.68-1.175.41-1.291-.235-2.654-3.725-2.738-4.195-2.209-3.759-.269.154-1.3,14.038-.611.717-1.41.539-1.175-.893-.623-1.444.623-2.854.752-3.725.611-2.961L98.7,254.4l.329-1.222-.022-.081-.269.034-2.773,3.806-4.217,5.7-3.336,3.571-.8.316-1.385-.717.128-1.281.774-1.14,4.618-5.874,2.785-3.64,1.8-2.1-.013-.3h-.107l-12.265,7.964-2.184.282-.94-.88.116-1.444.445-.47,3.687-2.538-.012.012Z" transform="translate(-75.96 -223.53)" fill="#d97757"/><path d="M273.773,272.617c-5.9,0-9.928-3.29-11.83-8.352a22.516,22.516,0,0,1-1.444-8.258c0-8.493,3.806-14.392,12.218-14.392,5.652,0,9.138,2.466,11.125,8.352h2.419l-.329-8.117c-3.384-2.184-7.613-3.289-12.757-3.289-7.249,0-13.415,3.242-16.845,9.091a19.681,19.681,0,0,0-2.607,10.163,17.143,17.143,0,0,0,8.822,15.448,20.557,20.557,0,0,0,10.257,2.419,31.789,31.789,0,0,0,14.016-2.935l1.021-8.951h-2.466c-1.479,4.088-3.242,6.544-6.169,7.848a13.239,13.239,0,0,1-5.426.974Zm25.432-31,.235-3.994h-1.667l-7.425,2.231v1.209l3.29,1.526v27.935c0,1.9-.974,2.325-3.525,2.644v2.043h12.629v-2.043c-2.56-.316-3.525-.739-3.525-2.644v-28.9l-.012-.012Zm50.222,34.07h.974l8.54-1.62v-2.09l-1.2-.094c-2-.188-2.513-.6-2.513-2.231v-14.9l.235-4.781h-1.35l-8.07,1.162v2.043l.786.141c2.184.316,2.832.927,2.832,2.456v13.274c-2.09,1.62-4.088,2.644-6.46,2.644-2.632,0-4.264-1.338-4.264-4.464V254.763l.235-4.781h-1.385l-8.083,1.162v2.043l.833.141c2.184.316,2.832.927,2.832,2.456v12.253c0,5.191,2.935,7.66,7.613,7.66,3.571,0,6.5-1.9,8.694-4.546l-.235,4.546-.013-.013Zm-23.471-16.529c0-6.638-3.524-9.185-9.89-9.185-5.614,0-9.693,2.325-9.693,6.178a3.075,3.075,0,0,0,1.244,2.644l4.276-.564a23.831,23.831,0,0,1-.282-2.409c0-2.184,1.162-3.289,3.524-3.289,3.49,0,5.251,2.456,5.251,6.4v1.291l-8.809,2.644c-2.936.8-4.605,1.491-5.721,3.114a5.861,5.861,0,0,0-.821,3.289c0,3.759,2.585,6.413,7,6.413,3.2,0,6.028-1.444,8.493-4.182.88,2.738,2.23,4.182,4.64,4.182a7.41,7.41,0,0,0,5.285-2.325l-.47-1.62a7.5,7.5,0,0,1-2.033.282c-1.35,0-2-1.068-2-3.161v-9.7Zm-11.278,12.769a3.558,3.558,0,0,1-3.9-3.853,3.1,3.1,0,0,1,2.466-3.208l7.143-2.268v6.861c-2.278,1.726-3.618,2.466-5.708,2.466Zm74.361,2.137v-2.09l-1.209-.094c-2-.188-2.5-.6-2.5-2.231V241.618l.235-3.994h-1.679l-7.425,2.231v1.209l3.29,1.526v9.185a10.372,10.372,0,0,0-6.309-1.808c-7.378,0-13.133,5.614-13.133,14.016,0,6.92,4.135,11.7,10.949,11.7a10.374,10.374,0,0,0,8.493-4.37l-.235,4.37h.987l8.54-1.62h0Zm-15.461-21.31c3.525,0,6.169,2.043,6.169,5.8v10.573a8.461,8.461,0,0,1-6.122,2.466c-5.05,0-7.613-3.994-7.613-9.327,0-5.99,2.926-9.514,7.566-9.514ZM407.1,258.04c-.658-3.1-2.56-4.862-5.2-4.862-3.947,0-6.686,2.973-6.686,7.237,0,6.31,3.337,10.4,8.728,10.4a10.106,10.106,0,0,0,8.681-5.11l1.573.423c-.7,5.473-5.661,9.561-11.748,9.561-7.143,0-12.065-5.285-12.065-12.8s5.345-12.91,12.487-12.91c5.332,0,9.091,3.208,10.3,8.775l-18.609,5.708v-2.513l12.534-3.888v-.013Z" transform="translate(-198.03 -233.206)" fill="#0f0f0d"/></g><g transform="translate(1273.565 378.284)"><g transform="translate(97.692 0)"><path d="M962.17,291.767c.039,0,.04-.009.006-.025a.152.152,0,0,0-.066-.015,11.8,11.8,0,0,1-11.631-11.775.007.007,0,0,0-.008-.008c-.019,0-.021,0-.005,0s.008,0,.006.009a19.141,19.141,0,0,1-.263,2.078,11.72,11.72,0,0,1-5.122,7.738,11.422,11.422,0,0,1-6.378,1.954c-.014,0-.02.006-.02.02h0a.019.019,0,0,0,.021.021,11.856,11.856,0,0,1,9.022,4.328,12.114,12.114,0,0,1,2.356,4.739,10.673,10.673,0,0,1,.235,1.306c.057.476.1.923.135,1.344.009.1.014.1.016,0a13,13,0,0,1,.154-2.016,11.85,11.85,0,0,1,7.816-9.063A10.8,10.8,0,0,1,962.17,291.767Z" transform="translate(-938.69 -279.942)" fill="#8779cd"/></g><g transform="translate(0 17.974)"><path d="M203.667,440.976H185.32a.067.067,0,0,0-.067.067v4.288a.1.1,0,0,0,.1.1h13.705c.059,0,.086.029.082.087a13.593,13.593,0,0,1-1.259,4.978,12.3,12.3,0,0,1-8.511,6.687,17.1,17.1,0,0,1-4.833.457,15.084,15.084,0,0,1-8.13-2.761,14.808,14.808,0,0,1-6.08-10.368,18.957,18.957,0,0,1,.2-5.914,14.458,14.458,0,0,1,4.23-7.712,14.766,14.766,0,0,1,8.985-4.012,14.537,14.537,0,0,1,12.111,4.47.063.063,0,0,0,.1,0L199.213,428a.063.063,0,0,0-.006-.106c-.239-.188-.407-.437-.628-.648a15.977,15.977,0,0,0-3.182-2.4,20.8,20.8,0,0,0-11.342-2.573,19.68,19.68,0,0,0-16.738,11.016,20.464,20.464,0,0,0-1.93,10.823A19.679,19.679,0,0,0,183.45,462.1c6.133.481,12.278-1.429,16.314-6.2a17.52,17.52,0,0,0,3.834-8.075,21.355,21.355,0,0,0,.337-2.565,16.579,16.579,0,0,0-.229-4.251A.04.04,0,0,0,203.667,440.976Z" transform="translate(-165.306 -422.238)" fill="#4991e7"/></g><g transform="translate(115.727 18.246)"><circle cx="3.409" cy="3.409" r="3.409" transform="translate(0 0)" fill="#8a78cb"/></g><g transform="translate(152.62 18.247)"><circle cx="3.408" cy="3.408" r="3.408" transform="translate(0 0)" fill="url(#a-403)"/></g><g transform="translate(41.64 28.962)"><path d="M510.111,509.326a12.953,12.953,0,0,0-9.531,2.358,14.48,14.48,0,0,0-5.592,10.976,18.282,18.282,0,0,0,.168,3.827A13.419,13.419,0,0,0,510.976,538a12.217,12.217,0,0,0,3.57-1,13.455,13.455,0,0,0,6.211-5.961,0,0,0,0,0,0,0,.056.056,0,0,0-.027-.075l-3.969-1.878-.013-.005a.1.1,0,0,0-.128.066.753.753,0,0,1-.059.134,9.14,9.14,0,0,1-5.581,4.352,9.356,9.356,0,0,1-3.522.123,9.023,9.023,0,0,1-7.484-7.331,13.724,13.724,0,0,1-.215-1.667c0-.057.024-.085.081-.085H521.12a.084.084,0,0,0,.093-.086,15.436,15.436,0,0,0-2.543-10.373A12.043,12.043,0,0,0,510.111,509.326Zm6.071,11.433H500.117c-.054,0-.076-.026-.064-.081a10.009,10.009,0,0,1,2.008-4.283,7.826,7.826,0,0,1,5.549-2.851,12.788,12.788,0,0,1,1.507,0,7.62,7.62,0,0,1,5.437,2.727,7.965,7.965,0,0,1,1.7,4.41A.06.06,0,0,1,516.182,520.759Z" transform="translate(-494.954 -509.219)" fill="#4d8beb"/></g><g transform="translate(72.058 28.963)"><path d="M776.046,517.7a10.793,10.793,0,0,0-2.474-5.845A7.821,7.821,0,0,0,768.8,509.4a13.676,13.676,0,0,0-4.388.023,8.845,8.845,0,0,0-2.483.783,11.624,11.624,0,0,0-4.611,4.194c-.047.072-.083.068-.11-.013a4.365,4.365,0,0,0-.3-.683,8.716,8.716,0,0,0-5.487-4.187,9.648,9.648,0,0,0-5,.092,10.377,10.377,0,0,0-5.344,3.654,5.185,5.185,0,0,0-.48.753.113.113,0,0,1-.094.061l-.063.005c-.048,0-.072-.018-.072-.066l0-3.888h0a.029.029,0,0,0-.029-.029h-4.484a.1.1,0,0,0-.1.1v27.076a.042.042,0,0,0,.047.048h4.72a.063.063,0,0,0,.071-.069q.005-7.024-.011-14.7a12.937,12.937,0,0,1,.127-2.077c.558-3.35,2.961-6.724,6.629-6.882,3.095-.071,5.415,1.364,6,4.5a13.588,13.588,0,0,1,.227,2.458q.011,8.146.006,16.7a.06.06,0,0,0,.067.068h4.643a.053.053,0,0,0,.053-.053q.017-7.172-.005-14.279a17.083,17.083,0,0,1,.124-2.414,9.541,9.541,0,0,1,1.59-4.046,7.307,7.307,0,0,1,1.546-1.631,5.965,5.965,0,0,1,4.142-1.3,5.521,5.521,0,0,1,4.426,2.011,8.054,8.054,0,0,1,1.229,4.6q.019,7.911.005,17.026a.072.072,0,0,0,.081.082h4.613a.067.067,0,0,0,.076-.076q-.021-8.291,0-17.009A21.993,21.993,0,0,0,776.046,517.7Z" transform="translate(-735.76 -509.23)" fill="#7f7bd1"/></g><g transform="translate(125.986 28.959)"><path d="M1185.2,514.261a8.551,8.551,0,0,0-6.466-4.846,10.969,10.969,0,0,0-9.142,2.134,7.546,7.546,0,0,0-2.019,2.245q-.35.616-.351-.092v-3.561a.064.064,0,0,0-.073-.073h-4.431a.045.045,0,0,0-.044.045V537.2a.075.075,0,0,0,.085.086h4.689a.057.057,0,0,0,.064-.064q.013-7.276,0-14.657a12.264,12.264,0,0,1,.177-2.318,9.031,9.031,0,0,1,2.793-4.983c.222-.173.442-.341.659-.5a6.485,6.485,0,0,1,4.663-1.17,5.872,5.872,0,0,1,5.03,3.19,8.637,8.637,0,0,1,.672,3.446q.013,8.248.005,17.02c0,.027.013.039.038.039h4.73a.063.063,0,0,0,.071-.072q.013-8.843-.006-17.663A12.079,12.079,0,0,0,1185.2,514.261Zm-15.578-2.515h.005l.008,0Z" transform="translate(-1162.68 -509.198)" fill="url(#b-404)"/></g><g transform="translate(116.759 29.828)"><path d="M1094.388,516.08h-4.714a.034.034,0,0,0-.034.034v27.153a.034.034,0,0,0,.034.034h4.714a.034.034,0,0,0,.034-.034V516.114A.034.034,0,0,0,1094.388,516.08Z" transform="translate(-1089.64 -516.08)" fill="#8a78cb"/></g><g transform="translate(153.673 29.828)"><path d="M1386.608,516.08h-4.7a.034.034,0,0,0-.034.034v27.153a.034.034,0,0,0,.034.034h4.7a.034.034,0,0,0,.034-.034V516.114A.034.034,0,0,0,1386.608,516.08Z" transform="translate(-1381.87 -516.08)" fill="url(#a-403)"/></g></g><g transform="translate(970.063 447.013)" clip-path="url(#d-402)"><path d="M50.852,21.24A13.943,13.943,0,0,0,33.779,4.167a13.943,13.943,0,0,0-23.322,6.249A13.943,13.943,0,0,0,4.208,33.738,13.943,13.943,0,0,0,21.281,50.811,13.943,13.943,0,0,0,44.6,44.562,13.943,13.943,0,0,0,50.852,21.24ZM31.919,8.164a10.934,10.934,0,0,1,16.291,11l-11.776-6.8a1.5,1.5,0,0,0-1.5,0L21.142,20.328V14.975a1.018,1.018,0,0,1,.506-.879L31.919,8.164ZM27.53,20.112,33.919,23.8v7.377L27.53,34.866l-6.389-3.689V23.8ZM12.989,14.025A10.934,10.934,0,0,1,30.662,5.418l-11.776,6.8a1.5,1.5,0,0,0-.752,1.3V29.441L13.5,26.765a1.019,1.019,0,0,1-.508-.878V14.026ZM3.508,21.052a10.917,10.917,0,0,1,6.474-7.31v13.6a1.5,1.5,0,0,0,.752,1.3L24.522,36.6l-4.636,2.677a1.017,1.017,0,0,1-1.014,0L8.6,33.351a10.936,10.936,0,0,1-5.092-12.3ZM23.141,46.814a10.934,10.934,0,0,1-16.291-11l11.776,6.8a1.5,1.5,0,0,0,1.5,0L33.919,34.65V40a1.017,1.017,0,0,1-.506.879L23.141,46.814Zm18.93-5.861A10.934,10.934,0,0,1,24.4,49.56l11.776-6.8a1.5,1.5,0,0,0,.752-1.3V25.537l4.636,2.677a1.019,1.019,0,0,1,.508.878V40.952Zm9.481-7.027a10.918,10.918,0,0,1-6.474,7.311v-13.6a1.5,1.5,0,0,0-.752-1.3L30.538,18.376,35.174,15.7a1.018,1.018,0,0,1,1.014,0L46.46,21.627a10.936,10.936,0,0,1,5.092,12.3Z" transform="translate(0.121 0.081)"/><path d="M48.726,29.75c-4.935,0-8.363-3.738-8.363-8.9s3.432-8.9,8.289-8.9a7.235,7.235,0,0,1,7.091,4.625h5.513c-.962-5.55-6.166-9.6-12.682-9.6A13.511,13.511,0,0,0,35.008,20.847c0,7.669,5.587,13.876,13.608,13.876,6.628,0,11.716-3.969,12.757-9.6H55.9a7.4,7.4,0,0,1-7.169,4.625h-.005Z" transform="translate(33.759 6.722)"/><path d="M60.551,14.49a6.873,6.873,0,0,0-5.666,2.659V7.168H49.875v26.98h5.009V23.777c0-3.007,1.619-4.972,4.242-4.972,2.391,0,3.737,1.85,3.737,4.431V34.142h5.009V22.426c0-4.778-2.928-7.942-7.321-7.942v.006Z" transform="translate(48.096 6.912)"/><path d="M78.219,17.987c0-4.393-3.007-7.091-8.557-7.091-4.547,0-8.173,2.544-8.788,6.244h5.051a3.645,3.645,0,0,1,3.7-2.276c2.507,0,3.7,1.309,3.7,3.585v.115l-4.894.426c-5.125.426-7.979,2.507-7.979,6.438,0,3.316,2.854,5.513,6.823,5.513,2.66,0,5.241-1.041,6.323-2.775a12.093,12.093,0,0,0,.231,2.391h4.663a28.222,28.222,0,0,1-.268-4.315V17.994l-.005-.009Zm-4.9,4.589c0,2.276-1.7,4.588-5.125,4.588-1.85,0-2.854-.888-2.854-2.2,0-1.425.962-2.313,3.122-2.507l4.856-.426v.541Z" transform="translate(58.297 10.508)"/><path d="M79.285,7.914H74.276v6.244h-4.01v4.048h4.01v9.482c0,3.664,1.887,5.745,5.935,5.745h4.01V29.269H81.676c-1.7,0-2.391-.578-2.391-2.16v-8.9h4.936V14.159H79.285V7.915Z" transform="translate(67.759 7.632)"/><path d="M101.166,19.922H92.53v4.315h7.364c-.5,3.585-3.858,5.745-7.595,5.745-5.4,0-8.557-3.969-8.557-9.135s3.548-8.941,8.4-8.941c3.316,0,6.018,1.929,6.711,4.084h5.509c-1.041-5.356-5.976-9.02-12.295-9.02A13.59,13.59,0,0,0,78.5,20.883c0,7.632,5.32,13.839,13.261,13.839,3.626,0,6.9-1.619,8.363-3.816v3.432H104.6V23.354a3.108,3.108,0,0,0-3.432-3.432Z" transform="translate(75.7 6.722)"/><path d="M105.76,7.169H93.813v26.98H98.9V24.009h6.9c5.325,0,9.1-3.122,9.1-8.363s-3.773-8.479-9.135-8.479Zm-.348,12.373H98.9V11.794h6.517c2.625,0,4.32,1.5,4.32,3.853s-1.7,3.894-4.32,3.894Z" transform="translate(90.467 6.912)"/><path d="M105.19,7.168v4.625H114.4V34.148h5.084V11.793h9.252V7.168H105.19Z" transform="translate(101.436 6.912)"/></g></g></svg>